<svg width="64" height="64" viewBox="0 0 64 64" fill="none" xmlns="http://www.w3.org/2000/svg">
<path fill-rule="evenodd" clip-rule="evenodd" d="M43.663 24.1741H20.3099C20.3099 20.1601 22.7099 16.6713 26.2724 14.8518L24.4818 11.5412C24.2193 11.0817 24.8849 10.7909 25.1099 11.1848L26.9286 14.5236C30.2005 13.0699 33.9599 13.1449 37.0818 14.5236L38.8911 11.1942C39.1255 10.7909 39.7818 11.091 39.5193 11.5506L37.7286 14.8518C41.263 16.6713 43.663 20.1601 43.663 24.1741ZM36.8228 20.01C37.4442 20.01 37.9478 19.5061 37.9478 18.8845C37.9478 18.263 37.4442 17.7591 36.8228 17.7591C36.2015 17.7591 35.6978 18.263 35.6978 18.8845C35.6978 19.5061 36.2015 20.01 36.8228 20.01ZM27.4482 18.8845C27.4482 19.5061 26.9445 20.01 26.3232 20.01C25.7019 20.01 25.1982 19.5061 25.1982 18.8845C25.1982 18.263 25.7019 17.7591 26.3232 17.7591C26.9445 17.7591 27.4482 18.263 27.4482 18.8845Z" fill="white"/>
<path d="M19.4 38.0448V27.1845C19.4 25.7683 18.2375 24.6054 16.8219 24.6054C15.3875 24.6054 14 25.7683 14 27.1845V38.0448C14 39.4797 15.3875 40.6426 16.8219 40.6426C18.2656 40.6426 19.4 39.4891 19.4 38.0448Z" fill="white"/>
<path d="M23.1875 44.6848C21.65 44.6848 20.4125 43.4468 20.4125 41.9087V25.0837H43.5969V41.9087C43.5969 43.4468 42.3594 44.6848 40.8406 44.6848H38.9469V50.415C38.9469 53.8663 33.7437 53.8569 33.7437 50.415V44.6848H30.2562V50.415C30.2562 53.8476 25.0813 53.8757 25.0813 50.415L25.0531 44.6848H23.1875Z" fill="white"/>
<path d="M44.6 27.1845C44.6 25.7402 45.7625 24.6054 47.1781 24.6054C48.6125 24.6054 50 25.7402 50 27.1845V38.0448C50 39.4797 48.6219 40.6426 47.1781 40.6426C45.7625 40.6426 44.6 39.4891 44.6 38.0448V27.1845Z" fill="white"/>
<rect x="1" y="1" width="62" height="62" rx="9" stroke="#FF8B00" stroke-width="2"/>
</svg>
