<svg width="64" height="64" viewBox="0 0 64 64" fill="none" xmlns="http://www.w3.org/2000/svg">
<path d="M39.5577 40.6827C39.5465 38.7162 40.4726 37.232 42.3472 36.139C41.2984 34.6976 39.7139 33.9046 37.6217 33.7493C35.6411 33.5992 33.4764 34.8584 32.6841 34.8584C31.8472 34.8584 29.928 33.8028 28.4216 33.8028C25.3084 33.8511 22 36.1872 22 40.9399C22 42.3437 22.2678 43.7939 22.8034 45.2906C23.5175 47.2571 26.0951 52.0794 28.7843 51.999C30.1902 51.9669 31.1833 51.0399 33.0133 51.0399C34.7875 51.0399 35.708 51.999 37.2758 51.999C39.9872 51.9615 42.3193 47.5786 43 45.6068C39.3624 43.9618 39.5577 40.7845 39.5577 40.6827ZM36.3998 31.8846C37.923 30.1486 37.7835 28.568 37.7388 28C36.3943 28.075 34.8377 28.8787 33.9506 29.87C32.9742 30.9309 32.3996 32.2436 32.5223 33.7225C33.9785 33.8296 35.3063 33.1116 36.3998 31.8846Z" fill="#444444"/>
<circle cx="14.5" cy="14.5" r="3" stroke="#444444"/>
<rect x="8.5" y="9.5" width="20" height="10" rx="4.5" stroke="#444444"/>
<rect x="1" y="1" width="62" height="62" rx="9" stroke="#FF8B00" stroke-width="2"/>
</svg>
