<svg width="134" height="108" viewBox="0 0 134 108" fill="none" xmlns="http://www.w3.org/2000/svg">
<path d="M49.9094 3.3819V3.14457C50.3234 -1.04819 56.1197 -1.04819 56.5337 3.14457V3.3819V3.40167L55.4099 23.6733H55.3902L55.3508 23.8908C54.9171 26.2443 51.6443 26.2443 51.2106 23.8908L51.1711 23.6733L49.8896 3.40167" fill="#FF8B00"/>
<path d="M35.9507 6.36825L35.8718 6.11115C35.0832 2.03705 40.6232 0.415325 42.1413 4.27187L42.2202 4.52897L46.7941 24.3061V24.3259L46.8336 24.5237C47.0701 26.9167 43.9551 27.8265 42.8511 25.6905L42.7722 25.4928H42.7525L35.9507 6.36825Z" fill="#FF8B00"/>
<path d="M38.7307 27.3518L28.7942 9.67102L28.6365 9.45347C26.0932 6.19024 21.2432 9.29525 23.1359 12.9936L23.2936 13.2309L23.2739 13.2507L35.182 29.6657H35.2017L35.3397 29.824C36.976 31.5841 39.7165 29.8042 38.8293 27.5694L38.7307 27.3518Z" fill="#FF8B00"/>
<path d="M13.0414 23.337L12.8246 23.159C9.96585 20.1727 13.7709 15.7822 17.1028 18.2147L17.3197 18.3927L17.3394 18.373L31.8302 32.5334V32.5532L31.9682 32.7114C33.4468 34.61 31.3176 37.0624 29.2475 35.856L29.07 35.7373V35.7571L13.0414 23.337Z" fill="#FF8B00"/>
<path d="M26.6844 39.4752L8.78285 29.9822V30.002L8.52655 29.8833C4.6032 28.5385 2.21764 33.7794 5.80583 35.856L6.04242 35.9747V35.9944L24.91 43.3515V43.312L25.1072 43.3911C27.4336 43.9646 28.7939 40.9783 26.8224 39.6137L26.6844 39.4752Z" fill="#FF8B00"/>
<path d="M2.90786 50.0362L2.63185 49.9967C-1.39008 49.0276 -0.581753 43.312 3.55847 43.5098L3.83449 43.5493V43.5296L23.6681 47.5839V47.6037L23.8653 47.663C26.1325 48.4343 25.6594 51.6777 23.2738 51.7766L23.0767 51.7569V51.7766L2.90786 50.0362Z" fill="#FF8B00"/>
<path d="M2.90786 57.9471L2.63185 57.9867C-1.39008 58.9558 -0.581753 64.6714 3.55847 64.4736L3.83449 64.434V64.4538L23.6681 60.3995V60.3797L23.8653 60.3204C26.1325 59.5491 25.6594 56.3056 23.2738 56.2067L23.0767 56.2265V56.2067L2.90786 57.9471Z" fill="#FF8B00"/>
<path d="M26.665 68.4883L26.8424 68.3697C28.7942 66.9853 27.4339 64.0187 25.1272 64.5922L24.93 64.6713L6.06244 72.0087V72.0284L5.82585 72.1471C2.23766 74.2237 4.62322 79.4646 8.54657 78.1198L8.80287 78.0011V78.0209L26.665 68.4883Z" fill="#FF8B00"/>
<path d="M13.0414 84.6463L12.8246 84.8243C9.96585 87.8106 13.7709 92.2012 17.1028 89.7686L17.3197 89.5906H17.3394L31.8302 75.4301V75.4103L31.9682 75.2521C33.4468 73.3535 31.3176 70.9011 29.2475 72.1076L29.07 72.2262V72.2064L13.0414 84.6463Z" fill="#FF8B00"/>
<path d="M38.7307 80.6315L28.7942 98.3123L28.6365 98.5299C26.0932 101.793 21.2432 98.6881 23.1359 94.9897L23.2936 94.7524L23.2739 94.7326L35.182 78.3176H35.2017L35.3397 78.1594C36.976 76.3992 39.7165 78.1792 38.8293 80.414L38.7307 80.6315Z" fill="#FF8B00"/>
<path d="M42.7722 82.5104L42.8511 82.3126C43.9551 80.1767 47.0701 81.1062 46.8336 83.4794L46.7941 83.6772L42.2202 103.454V103.435L42.1413 103.692C40.6232 107.548 35.0832 105.927 35.8718 101.852L35.9507 101.595L35.931 101.576L42.7722 82.5104Z" fill="#FF8B00"/>
<path d="M49.9094 104.601V104.839C50.3234 109.032 56.1197 109.032 56.5337 104.839V104.601V104.562L55.4099 84.2903H55.3902L55.3508 84.0727C54.9171 81.7192 51.6443 81.7192 51.2106 84.0727L51.1711 84.2903L49.8896 104.562" fill="#FF8B00"/>
<path d="M63.8085 82.5104L63.7296 82.3126C62.6256 80.1767 59.5106 81.1062 59.7471 83.4794L59.7866 83.6772L64.3605 103.454V103.435L64.4394 103.692C65.9575 107.548 71.4975 105.927 70.7089 101.852L70.63 101.595L70.6497 101.576L63.8085 82.5104Z" fill="#FF8B00"/>
<path d="M92.7307 31.6039L92.711 31.2875L92.6716 30.971C91.7646 26.1059 84.9826 26.3432 84.4108 31.2875L84.3911 31.6039L84.4108 31.9204C84.9629 36.8646 91.7449 37.102 92.6716 32.2368L92.711 31.9204L92.7307 31.6039Z" fill="#FF8B00"/>
<path d="M67.8701 80.6315L77.8067 98.3123L77.9644 98.5299C80.5077 101.793 85.3576 98.6881 83.465 94.9897L83.3073 94.7524L83.327 94.7326L71.4189 78.3176L71.2809 78.1594C69.6445 76.3992 66.9041 78.1792 67.7913 80.414L67.8701 80.6315Z" fill="#FF8B00"/>
<path d="M66.0367 69.0619H75.7169H56.179H56.2382H55.8833C52.9063 68.8839 50.5207 66.4908 50.3433 63.5045V63.1485V63.2078V37.4579V37.4975V37.2404C50.7967 33.6409 55.7847 33.6607 56.2382 37.2404V37.4975V37.4579V63.1287H75.7366H75.7169H75.9732C79.5614 63.5836 79.5417 68.607 75.9732 69.0421H75.7169H66.0367V69.0619Z" fill="#444444"/>
<path d="M91.5284 43.2527V66.0953H91.5086L91.4889 66.3524C91.0355 69.9321 86.0672 69.9518 85.6138 66.3524V66.0953V43.2527V43.1735V42.9164C86.0672 39.317 91.0355 39.3368 91.4889 42.9164L91.5086 43.1735L91.5284 43.2527Z" fill="#444444"/>
<path d="M98.488 21.2802V66.0953L98.5077 66.3524C98.9611 69.9518 103.929 69.932 104.383 66.3524V66.0953V54.1696L128.909 79.8008H128.928L129.106 79.9788C131.905 82.2532 135.494 78.7922 133.345 75.885L133.167 75.6872H133.187L108.05 49.522L133.148 23.3964H133.128L133.305 23.1986C135.454 20.2914 131.886 16.8501 129.066 19.1047L128.889 19.2827L104.363 44.7953V44.7755V21.2802V21.3395V21.0824C103.91 17.5028 98.9414 17.483 98.488 21.0824L98.4683 21.3395L98.488 21.2802Z" fill="#444444"/>
</svg>
