<svg width="24" height="21" viewBox="0 0 24 21" fill="none" xmlns="http://www.w3.org/2000/svg">
<path d="M21.9999 14.805V17.43C22.0011 17.6737 21.944 17.9149 21.8324 18.1382C21.7209 18.3615 21.5572 18.5619 21.352 18.7266C21.1468 18.8914 20.9045 19.0168 20.6407 19.0949C20.3769 19.1729 20.0973 19.2019 19.8199 19.18C16.7428 18.8874 13.7869 17.9674 11.1899 16.4937C8.77376 15.1503 6.72527 13.3579 5.18993 11.2437C3.49991 8.96105 2.44818 6.36211 2.11993 3.65749C2.09494 3.41553 2.12781 3.17166 2.21643 2.94141C2.30506 2.71117 2.4475 2.4996 2.6347 2.32016C2.82189 2.14073 3.04974 1.99736 3.30372 1.8992C3.55771 1.80104 3.83227 1.75022 4.10993 1.74999H7.10993C7.59524 1.74581 8.06572 1.89619 8.43369 2.17308C8.80166 2.44998 9.04201 2.83451 9.10993 3.25499C9.23656 4.09505 9.47138 4.91988 9.80993 5.71374C9.94448 6.02693 9.9736 6.36729 9.89384 6.69451C9.81408 7.02173 9.6288 7.32209 9.35993 7.55999L8.08993 8.67124C9.51349 10.8618 11.5864 12.6756 14.0899 13.9212L15.3599 12.81C15.6318 12.5747 15.9751 12.4126 16.3491 12.3428C16.723 12.273 17.112 12.2985 17.4699 12.4162C18.3772 12.7125 19.3199 12.9179 20.2799 13.0287C20.7657 13.0887 21.2093 13.3028 21.5265 13.6303C21.8436 13.9578 22.0121 14.3759 21.9999 14.805Z" stroke="#FF8B00" stroke-width="2" stroke-linecap="round" stroke-linejoin="round"/>
</svg>
