<svg width="64" height="64" viewBox="0 0 64 64" fill="none" xmlns="http://www.w3.org/2000/svg">
<path d="M39.5577 43.6827C39.5465 41.7162 40.4726 40.232 42.3472 39.139C41.2984 37.6976 39.7139 36.9046 37.6217 36.7493C35.6411 36.5992 33.4764 37.8584 32.6841 37.8584C31.8472 37.8584 29.928 36.8028 28.4216 36.8028C25.3084 36.8511 22 39.1872 22 43.9399C22 45.3437 22.2678 46.7939 22.8034 48.2906C23.5175 50.2571 26.0951 55.0794 28.7843 54.999C30.1902 54.9669 31.1833 54.0399 33.0133 54.0399C34.7875 54.0399 35.708 54.999 37.2758 54.999C39.9872 54.9615 42.3193 50.5786 43 48.6068C39.3624 46.9618 39.5577 43.7845 39.5577 43.6827ZM36.3998 34.8846C37.923 33.1486 37.7835 31.568 37.7388 31C36.3943 31.075 34.8377 31.8787 33.9506 32.87C32.9742 33.9309 32.3996 35.2436 32.5223 36.7225C33.9785 36.8296 35.3063 36.1116 36.3998 34.8846Z" fill="white"/>
<circle cx="14.5" cy="14.5" r="3" stroke="white"/>
<circle cx="22.5" cy="22.5" r="3" stroke="white"/>
<circle cx="13.5" cy="23.5" r="1" stroke="white"/>
<circle cx="23.5" cy="13.5" r="2" stroke="white"/>
<rect x="8.5" y="8.5" width="20" height="20" rx="4.5" stroke="white"/>
<rect x="1" y="1" width="62" height="62" rx="9" stroke="#FF8B00" stroke-width="2"/>
</svg>
