<svg width="501" height="128" viewBox="0 0 501 128" fill="none" xmlns="http://www.w3.org/2000/svg">
<path d="M490.502 107.003L490.05 107.684L490.185 107.82L394.536 239.67L394.431 239.67L394.132 240.013L393.025 241.282C380.584 254.644 359.646 241.214 366.425 224.081L367.196 222.381L447.627 79.264L448.86 77.5629C468.677 52.1617 506.474 76.2412 491.748 105.129L490.502 107.003Z" stroke="#FF8B00" stroke-width="2"/>
<path d="M301.97 197.471L338.962 37.5241L338.995 37.5291L339.622 35.484C351.476 5.46853 394.588 18.0272 388.485 49.8087L387.862 51.8398L387.686 52.4137L387.823 52.551L332.633 206.357L332.019 207.897C323.567 224.154 299.905 217.076 301.663 199.009L301.97 197.471Z" stroke="#FF8B00" stroke-width="2"/>
<mask id="path-3-inside-1_1538_56" fill="white">
<path d="M275.762 27.7849L275.762 25.8628C272.409 -8.09634 225.462 -8.09634 222.108 25.8628L222.108 27.7849L222.108 28.1053L231.21 192.294L231.37 192.294L231.689 194.056C235.203 213.118 261.71 213.118 265.223 194.056L265.542 192.294L275.922 28.1053"/>
</mask>
<path d="M275.762 25.8628L277.762 25.8628L277.762 25.7643L277.753 25.6662L275.762 25.8628ZM222.108 25.8628L220.118 25.6662L220.108 25.7643L220.108 25.8628L222.108 25.8628ZM222.108 28.1053L220.108 28.1053L220.108 28.1607L220.112 28.216L222.108 28.1053ZM231.21 192.294L229.213 192.405L229.318 194.294L231.21 194.294L231.21 192.294ZM231.37 192.294L233.338 191.938L233.04 190.294L231.37 190.294L231.37 192.294ZM231.689 194.056L229.722 194.413L229.723 194.419L231.689 194.056ZM265.223 194.056L267.19 194.419L267.191 194.413L265.223 194.056ZM265.542 192.294L267.51 192.651L267.531 192.537L267.538 192.421L265.542 192.294ZM277.762 27.7849L277.762 25.8628L273.762 25.8628L273.762 27.7849L277.762 27.7849ZM277.753 25.6662C274.162 -10.6975 223.709 -10.6975 220.118 25.6662L224.099 26.0593C227.215 -5.49519 270.656 -5.49519 273.772 26.0593L277.753 25.6662ZM220.108 25.8628L220.108 27.7849L224.108 27.7849L224.108 25.8628L220.108 25.8628ZM220.108 27.7849L220.108 28.1053L224.108 28.1053L224.108 27.7849L220.108 27.7849ZM220.112 28.216L229.213 192.405L233.207 192.184L224.105 27.9946L220.112 28.216ZM231.21 194.294L231.37 194.294L231.37 190.294L231.21 190.294L231.21 194.294ZM229.402 192.651L229.722 194.413L233.657 193.7L233.338 191.938L229.402 192.651ZM229.723 194.419C233.638 215.664 263.274 215.664 267.19 194.419L263.256 193.694C260.146 210.573 236.767 210.573 233.656 193.694L229.723 194.419ZM267.191 194.413L267.51 192.651L263.574 191.938L263.255 193.7L267.191 194.413ZM267.538 192.421L277.918 28.2315L273.926 27.9791L263.546 192.168L267.538 192.421Z" fill="#FF8B00" mask="url(#path-3-inside-1_1538_56)"/>
<path d="M157.758 37.5291L157.791 37.5241L194.783 197.471L195.09 199.009C196.848 217.076 173.186 224.154 164.734 207.897L164.12 206.357L108.93 52.5509L109.066 52.4136L108.89 51.8398L108.268 49.8086C102.165 18.0272 145.277 5.46849 157.131 35.484L157.758 37.5291Z" stroke="#FF8B00" stroke-width="2"/>
<path d="M102.33 240.046L6.4076 107.82L6.54266 107.684L6.09032 107.003L4.84456 105.129C-9.88104 76.2411 27.9155 52.1616 47.7326 77.5629L48.9657 79.2639L129.378 222.346L129.988 224.031L129.994 224.045L129.999 224.059C136.805 241.203 115.854 254.649 103.408 241.282L102.33 240.046Z" stroke="#FF8B00" stroke-width="2"/>
</svg>
