<svg width="76" height="62" viewBox="0 0 76 62" fill="none" xmlns="http://www.w3.org/2000/svg">
<path d="M28.3068 1.91808V1.78348C28.5417 -0.594494 31.8291 -0.594494 32.0639 1.78348V1.91808V1.9293L31.4266 13.4266H31.4154L31.393 13.55C31.147 14.8848 29.2908 14.8848 29.0448 13.55L29.0225 13.4266L28.2957 1.9293" fill="#FF8B00"/>
<path d="M20.3902 3.61204L20.3455 3.46622C19.8982 1.15554 23.0403 0.235762 23.9013 2.42305L23.946 2.56887L26.5402 13.7857V13.797L26.5625 13.9091C26.6967 15.2664 24.93 15.7823 24.3038 14.5709L24.2591 14.4587H24.2479L20.3902 3.61204Z" fill="#FF8B00"/>
<path d="M21.9669 15.5129L16.3312 5.48498L16.2418 5.3616C14.7993 3.51081 12.0486 5.27186 13.1221 7.36941L13.2115 7.50402L13.2003 7.51523L19.9541 16.8252H19.9653L20.0436 16.915C20.9717 17.9133 22.526 16.9037 22.0228 15.6362L21.9669 15.5129Z" fill="#FF8B00"/>
<path d="M7.39693 13.2362L7.27393 13.1352C5.65257 11.4415 7.81066 8.95134 9.70038 10.331L9.82338 10.432L9.83457 10.4208L18.0532 18.452V18.4632L18.1315 18.553C18.9701 19.6298 17.7625 21.0207 16.5884 20.3365L16.4877 20.2692V20.2804L7.39693 13.2362Z" fill="#FF8B00"/>
<path d="M15.1348 22.3889L4.98174 17.0048V17.016L4.83638 16.9487C2.6112 16.1859 1.2582 19.1584 3.29329 20.3362L3.42747 20.4035V20.4147L14.1285 24.5874V24.5649L14.2403 24.6098C15.5597 24.9351 16.3313 23.2413 15.2131 22.4674L15.1348 22.3889Z" fill="#FF8B00"/>
<path d="M1.64947 28.3787L1.49293 28.3563C-0.788158 27.8067 -0.329704 24.565 2.01847 24.6772L2.17502 24.6996V24.6884L13.4239 26.9878V26.9991L13.5357 27.0327C14.8216 27.4702 14.5533 29.3097 13.2003 29.3658L13.0885 29.3546V29.3658L1.64947 28.3787Z" fill="#FF8B00"/>
<path d="M1.64947 32.8655L1.49293 32.8879C-0.788158 33.4376 -0.329704 36.6792 2.01847 36.5671L2.17502 36.5446V36.5559L13.4239 34.2564V34.2452L13.5357 34.2115C14.8216 33.7741 14.5533 31.9345 13.2003 31.8784L13.0885 31.8896V31.8784L1.64947 32.8655Z" fill="#FF8B00"/>
<path d="M15.1234 38.8442L15.2241 38.7769C16.3311 37.9917 15.5595 36.3092 14.2513 36.6345L14.1394 36.6794L3.43846 40.8408V40.852L3.30427 40.9193C1.26919 42.0971 2.62218 45.0696 4.84736 44.3068L4.99273 44.2395V44.2507L15.1234 38.8442Z" fill="#FF8B00"/>
<path d="M7.39693 48.0082L7.27393 48.1091C5.65257 49.8029 7.81066 52.293 9.70038 50.9133L9.82338 50.8124H9.83457L18.0532 42.7811V42.7699L18.1315 42.6801C18.9701 41.6033 17.7625 40.2124 16.5884 40.8967L16.4877 40.964V40.9527L7.39693 48.0082Z" fill="#FF8B00"/>
<path d="M21.9669 45.7312L16.3312 55.7591L16.2418 55.8825C14.7993 57.7333 12.0486 55.9722 13.1221 53.8747L13.2115 53.7401L13.2003 53.7288L19.9541 44.4189H19.9653L20.0436 44.3291C20.9717 43.3308 22.526 44.3403 22.0228 45.6078L21.9669 45.7312Z" fill="#FF8B00"/>
<path d="M24.2591 46.7966L24.3038 46.6845C24.93 45.473 26.6967 46.0002 26.5625 47.3463L26.5402 47.4584L23.946 58.6753V58.6641L23.9013 58.8099C23.0403 60.9972 19.8982 60.0774 20.3455 57.7667L20.3902 57.6209L20.379 57.6097L24.2591 46.7966Z" fill="#FF8B00"/>
<path d="M28.3068 59.3259V59.4605C28.5417 61.8384 31.8291 61.8384 32.0639 59.4605V59.3259V59.3034L31.4266 47.8061H31.4154L31.393 47.6827C31.147 46.3479 29.2908 46.3479 29.0448 47.6827L29.0225 47.8061L28.2957 59.3034" fill="#FF8B00"/>
<path d="M36.1901 46.7966L36.1454 46.6845C35.5192 45.473 33.7525 46.0002 33.8866 47.3463L33.909 47.4584L36.5032 58.6753V58.6641L36.5479 58.8099C37.4089 60.9972 40.551 60.0774 40.1037 57.7667L40.059 57.6209L40.0702 57.6097L36.1901 46.7966Z" fill="#FF8B00"/>
<path d="M52.5938 17.9246L52.5826 17.7451L52.5602 17.5656C52.0459 14.8063 48.1993 14.9409 47.8751 17.7451L47.8639 17.9246L47.8751 18.1041C48.1882 20.9083 52.0347 21.0429 52.5602 18.2835L52.5826 18.1041L52.5938 17.9246Z" fill="#FF8B00"/>
<path d="M38.4935 45.7312L44.1291 55.7591L44.2185 55.8825C45.661 57.7333 48.4117 55.9722 47.3383 53.8747L47.2488 53.7401L47.26 53.7288L40.5062 44.4189L40.4279 44.3291C39.4998 43.3308 37.9456 44.3403 38.4487 45.6078L38.4935 45.7312Z" fill="#FF8B00"/>
<path d="M37.4537 39.1691H42.944H31.8628H31.8963H31.6951C30.0066 39.0681 28.6536 37.7109 28.553 36.0171V35.8152V35.8489V21.2445V21.267V21.1211C28.8102 19.0797 31.6392 19.0909 31.8963 21.1211V21.267V21.2445V35.804H42.9551H42.944H43.0893C45.1244 36.062 45.1132 38.9111 43.0893 39.1579H42.944H37.4537V39.1691Z" fill="white"/>
<path d="M51.9117 24.5316V37.487H51.9005L51.8893 37.6328C51.6321 39.6631 48.8143 39.6743 48.5571 37.6328V37.487V24.5316V24.4867V24.3409C48.8143 22.2994 51.6321 22.3106 51.8893 24.3409L51.9005 24.4867L51.9117 24.5316Z" fill="white"/>
<path d="M55.8588 12.0695V37.4869L55.87 37.6327C56.1272 39.6742 58.945 39.663 59.2022 37.6327V37.4869V30.7231L73.1124 45.2602H73.1235L73.2242 45.3611C74.812 46.6511 76.8471 44.6881 75.6283 43.0392L75.5276 42.9271H75.5388L61.282 28.0872L75.5164 13.2697H75.5053L75.6059 13.1575C76.8247 11.5086 74.8008 9.55689 73.2018 10.8356L73.1012 10.9366L59.191 25.4063V25.3951V12.0695V12.1031V11.9573C58.9338 9.92705 56.116 9.91583 55.8588 11.9573L55.8477 12.1031L55.8588 12.0695Z" fill="white"/>
</svg>
