<svg width="24" height="24" viewBox="0 0 24 24" fill="none" xmlns="http://www.w3.org/2000/svg">
<path d="M0 11.3333C-0.00458908 13.0931 0.406574 14.8292 1.2 16.4C2.14075 18.2823 3.587 19.8655 5.37673 20.9724C7.16647 22.0792 9.22901 22.6658 11.3333 22.6666C13.0932 22.6712 14.8292 22.2601 16.4 21.4666L24 24L21.4667 16.4C22.2601 14.8292 22.6713 13.0931 22.6667 11.3333C22.6659 9.22899 22.0792 7.16645 20.9724 5.37671C19.8656 3.58698 18.2823 2.14073 16.4 1.19998C14.8292 0.406552 13.0932 -0.00461139 11.3333 -2.3051e-05H10.6667C7.88754 0.153299 5.26261 1.32633 3.29448 3.29446C1.32635 5.26259 0.153322 7.88751 0 10.6666V11.3333Z" fill="#FF8B00"/>
</svg>
